# xmcd
#
# Track frame offsets: 
#        150
#        12900
#        27187
#        39900
#        64500
#        82087
#        98625
#        111525
#        124162
#        146325
#        158287
#        179662
#        188850
#        205650
#        218250
#        231112
#        245625
#
# Disc length: 3529 seconds
#
# Revision: 1
# Processed by: cddbd v1.5.2PL0 Copyright (c) Steve Scherf et al.
# Submitted via: ExactAudioCopy v0.95a4
#
DISCID=db0dc711
DTITLE=Various Artist - The Old Home Place
DYEAR=2003
DGENRE=Bluegrass
TTITLE0=Livewire - Home Again
TTITLE1=IIIrd Time Out - Letter To Home
TTITLE2=J.D. Crow - Old Home Place
TTITLE3=Laurie Lewis - Who Will Watch The Home Place
TTITLE4=Spectrum - To Be Back Home Again
TTITLE5=Suzanne Thomas - Leaving This Land
TTITLE6=Nashville Bluegrass Band - My Native Home
TTITLE7=The Cox Family - Little Whitewashed Chimney
TTITLE8=The Rice Brothers - This Old House
TTITLE9=Jim And Jesse - Home
TTITLE10=Longview - Lonesome Old Home
TTITLE11=Connie and Babe - Home Is Where The Heart Is
TTITLE12=Dry Branch Fire Squad - Auction At The Home Place
TTITLE13=Vern Williams - Old Kentucky Home
TTITLE14=Bill Grant and Delia Bell - Cheer Of The Home Fires
TTITLE15=Alecia Nugent - You Don't Have To Go Home
TTITLE16=Hazel Dickens - Hills Of Home
EXTD=
EXTT0=
EXTT1=
EXTT2=
EXTT3=
EXTT4=
EXTT5=
EXTT6=
EXTT7=
EXTT8=
EXTT9=
EXTT10=
EXTT11=
EXTT12=
EXTT13=
EXTT14=
EXTT15=
EXTT16=
PLAYORDER=
